<?xml version="1.0" encoding="utf-8"?>
<!-- Generator: Adobe Illustrator 14.0.0, SVG Export Plug-In . SVG Version: 6.00 Build 43363)  -->
<!DOCTYPE svg PUBLIC "-//W3C//DTD SVG 1.1//EN" "http://www.w3.org/Graphics/SVG/1.1/DTD/svg11.dtd">
<svg version="1.1" id="Capa_1" xmlns="http://www.w3.org/2000/svg" xmlns:xlink="http://www.w3.org/1999/xlink" x="0px" y="0px"
	 width="57px" height="24px" viewBox="0 0 57 24" enable-background="new 0 0 57 24" xml:space="preserve">
<g>
	<rect x="0" y="2.285" fill="#454040" width="28" height="3.429"/>
	<rect x="0" y="10.285" fill="#454040" width="28" height="3.427"/>
	<rect x="0" y="18.285" fill="#454040" width="28" height="3.428"/>
	<rect x="0" fill="none" width="28" height="24"/>
</g>
<g>
	<path fill="#454040" d="M54.104,20.173l-6.117-6.063c2.147-3.566,1.709-8.324-1.301-11.407C43.166-0.9,37.405-0.9,33.885,2.701
		c-3.521,3.604-3.53,9.5-0.012,13.105c2.98,3.053,7.584,3.519,11.06,1.396l6.211,6.184c0.854,0.851,2.203,0.813,3.018-0.073
		C54.979,22.421,54.955,21.023,54.104,20.173z M44.1,13.154c-2.123,2.174-5.513,2.174-7.636,0c-2.12-2.174-2.12-5.639,0-7.813
		c2.123-2.171,5.513-2.171,7.636,0C46.225,7.515,46.225,10.979,44.1,13.154z"/>
	<rect x="29" y="-0.001" fill="none" width="28" height="23.999"/>
</g>
</svg>
